# AST/ASF file generated using VICON BodyLanguage
# -----------------------------------------------
:version 1.10
:name VICON
:units
  mass 1.0
  length 0.45
  angle deg
:documentation
   .ast/.asf automatically generated from VICON data using
   VICON BodyBuilder and BodyLanguage model FoxedUp or BRILLIANT.MOD
:root
   order TX TY TZ RX RY RZ
   axis XYZ
   position 0 0 0  
   orientation 0 0 0 
:bonedata
  begin
     id 1 
     name lhipjoint
     direction 0.567725 -0.736092 0.368589 
     length 2.42353 
     axis 0 0 0  XYZ
  end
  begin
     id 2 
     name lfemur
     direction 0.34202 -0.939693 0  
     length 7.24894  
     axis 0 0 20  XYZ
    dof rx ry rz
    limits (-160.0 20.0)
           (-70.0 70.0)
           (-60.0 70.0)
  end
  begin
     id 3 
     name ltibia
     direction 0.34202 -0.939693 0   
     length 7.6997   
     axis 0 0 20   XYZ
    dof rx
    limits (-10.0 170.0)
  end
  begin
     id 4 
     name lfoot
     direction 0.100767 -0.276854 0.955614   
     length 2.37556   
     axis -90 7.62852e-016 20   XYZ
    dof rx rz
    limits (-45.0 90.0)
           (-70.0 20.0)
  end
  begin
     id 5 
     name ltoes
     direction 1.53592e-011 -4.21894e-011 1   
     length 1.18363   
     axis -90 7.62852e-016 20   XYZ
    dof rx
    limits (-90.0 20.0)
  end
  begin
     id 6 
     name rhipjoint
     direction -0.556459 -0.742938 0.372017   
     length 2.4012  
     axis 0 0 0  XYZ 
  end
  begin
     id 7 
     name rfemur
     direction -0.34202 -0.939693 0   
     length 7.5119   
     axis 0 0 -20   XYZ
    dof rx ry rz
    limits (-160.0 20.0)
           (-70.0 70.0)
           (-70.0 60.0)
  end
  begin
     id 8 
     name rtibia
     direction -0.34202 -0.939693 0   
     length 7.50155   
     axis 0 0 -20   XYZ
    dof rx
    limits (-10.0 170.0)
 end
 begin
     id 9 
     name rfoot
     direction -0.118427 -0.325376 0.938139   
     length 2.32487  
     axis -90 -7.62852e-016 -20   XYZ
    dof rx rz
    limits (-45.0 90.0)
           (-20.0 70.0)
  end
  begin
     id 10 
     name rtoes
     direction -1.53525e-011 -4.21868e-011 1   
     length 1.15233   
     axis -90 -7.62852e-016 -20   XYZ
    dof rx
    limits (-90.0 20.0)
  end
  begin
     id 11 
     name lowerback
     direction 0.0287568 0.999577 -0.00434502   
     length 2.15243   
     axis 0 0 0   XYZ
    dof rx ry rz
    limits (-20.0 45.0)
           (-30.0 30.0)
           (-30.0 30.0)
  end
  begin
     id 12 
     name upperback
     direction 0.0294009 0.99956 0.00404628   
     length 2.15427   
     axis 0 0 0   XYZ
    dof rx ry rz
    limits (-20.0 45.0)
           (-30.0 30.0)
           (-30.0 30.0)
  end
  begin
     id 13 
     name thorax
     direction 0.0151014 0.999868 0.0059419   
     length 2.14898   
     axis 0 0 0   XYZ
    dof rx ry rz
    limits (-20.0 45.0)
           (-30.0 30.0)
           (-30.0 30.0)
  end
  begin
     id 14 
     name lowerneck
     direction -0.0249197 0.989906 0.139515   
     length 1.6861   
     axis 0 0 0   XYZ
    dof rx ry rz
    limits (-20.0 45.0)
           (-30.0 30.0)
           (-30.0 30.0)
  end
  begin
     id 15 
     name upperneck
     direction 0.0438463 0.988795 -0.142693   
     length 1.71276   
     axis 0 0 0   XYZ
    dof rx ry rz
    limits (-20.0 45.0)
           (-30.0 30.0)
           (-30.0 30.0)
  end
  begin
     id 16
     name head
     direction 0.0148499 0.997845 -0.0639186  
     length 1.7209  
     axis 0 0 0   XYZ
    dof rx ry rz
    limits (-20.0 45.0)
           (-30.0 30.0)
           (-30.0 30.0)
  end
  begin
     id 17 
     name lclavicle
     direction 0.940298 0.323464 -0.105876  
     length 3.9048  
     axis 0 0 0   XYZ
    dof ry rz
    limits (-20.0 10.0)
           (0.0 20.0)
  end
  begin
     id 18 
     name lhumerus
     direction 1 -4.48954e-011 -4.9675e-028   
     length 4.6851   
     axis 180 -30 -90   XYZ
    dof rx ry rz
    limits (-60.0 90.0)
           (-90.0 90.0)
           (-90.0 90.0)
  end
  begin
     id 19
     name lradius
     direction 1 -4.48992e-011 -1.03359e-026   
     length 3.39626   
     axis 180 -30 -90   XYZ
    dof rx
    limits (-10.0 170.0)
  end
  begin
     id 20
     name lwrist
     direction 1 -4.48906e-011 -1.67336e-026   
     length 1.69813   
     axis 9.90442e-015 90 90   XYZ
    dof ry
    limits (-180.0 0.0)
 end
  begin
     id 21 
     name lhand
     direction 1 -4.49006e-011 -3.34673e-026   
     length 0.486078   
     axis 2.1355e-014 90 90   XYZ
    dof rx rz
    limits (-90.0 90.0)
           (-45.0 45.0)
  end
  begin
     id 22 
     name lfingers
     direction 1 -4.48992e-011 -6.69345e-026   
     length 0.391889   
     axis 4.27099e-014 90 90   XYZ
    dof rx
    limits (0.0 90.0)
  end
  begin
     id 23
     name lthumb
     direction 0.707107 -6.34926e-011 0.707107   
     length 0.562676   
     axis -90 45 2.85299e-015   XYZ
    dof rx rz
    limits (-45.0 45.0)
           (-45.0 45.0)
  end
  begin
     id 24 
     name rclavicle
     direction -0.882459 0.414895 -0.221648   
     length 3.44646  
     axis 0 0 0   XYZ 
    dof ry rz
    limits (-10.0 20.0)
           (-20.0 0.0)
  end
  begin
     id 25 
     name rhumerus
     direction -1 -4.48962e-011 -2.37984e-027  
     length 5.55576   
     axis 180 30 90   XYZ
    dof rx ry rz
    limits (-90.0 60.0)
           (-90.0 90.0)
           (-90.0 90.0)
  end
  begin
     id 26 
     name rradius
     direction -1 -4.48982e-011 -6.86791e-027   
     length 3.32774   
     axis 180 30 90   XYZ
    dof rx
    limits (-10.0 170.0)
  end
  begin
     id 27 
     name rwrist
     direction -1 -4.48961e-011 -1.67336e-026   
     length 1.66387   
     axis 9.90442e-015 -90 -90   XYZ
    dof ry
    limits (-180.0 0.0)
  end
  begin
     id 28
     name rhand
     direction -1 -4.4897e-011 -3.34673e-026   
     length 0.507628   
     axis 2.1355e-014 -90 -90   XYZ
    dof rx rz
    limits (-90.0 90.0)
           (-45.0 45.0)
  end
  begin
     id 29
     name rfingers
     direction -1 -4.48854e-011 -6.69345e-026   
     length 0.409263   
     axis 4.27099e-014 -90 -90   XYZ
    dof rx
    limits (0.0 90.0)
  end
  begin
     id 30
     name rthumb
     direction -0.707107 -6.34913e-011 0.707107   
     length 0.587622   
     axis -90 -45 -2.85299e-015   XYZ
    dof rx rz
    limits (-45.0 45.0)
           (-45.0 45.0)
  end
:hierarchy
  begin
    root lhipjoint rhipjoint lowerback
    lhipjoint lfemur
    lfemur ltibia
    ltibia lfoot
    lfoot ltoes
    rhipjoint rfemur
    rfemur rtibia
    rtibia rfoot
    rfoot rtoes
    lowerback upperback
    upperback thorax
    thorax lowerneck lclavicle rclavicle
    lowerneck upperneck
    upperneck head
    lclavicle lhumerus
    lhumerus lradius
    lradius lwrist
    lwrist lhand lthumb
    lhand lfingers
    rclavicle rhumerus
    rhumerus rradius
    rradius rwrist
    rwrist rhand rthumb
    rhand rfingers
  end

#!OML:ASF E:\motion texture\Top Level 1\Subject 1\Session 1\male.ASF
:FULLY-SPECIFIED
:DEGREES
122
root 41.1669 17.8583 6.67029 101.573 -85.0087 -91.3726
lowerback -5.88322 -1.51013 3.36613
upperback -2.63673 -2.34082 3.42222
thorax 0.591135 -1.22495 1.48596
lowerneck -15.6229 -7.22102 -11.1942
upperneck 13.9804 -8.6766 7.86334
head 7.71529 -4.06511 3.39162
rclavicle -4.3596e-014 5.04913e-014
rhumerus -31.3554 -4.04814 -77.6362
rradius 25.7195
rwrist 6.89149
rhand -11.3666 -21.3
rfingers 7.12502
rthumb 14.6673 -50.7612
lclavicle -4.3596e-014 5.04913e-014
lhumerus -37.0525 13.9492 78.3433
lradius 30.5517
lwrist -21.0262
lhand -10.966 17.0242
lfingers 7.12502
lthumb 15.0533 46.4569
rfemur -11.2035 3.60022 26.2489
rtibia 15.7429
rfoot -9.49752 -13.1998
rtoes 13.2052
lfemur -8.0316 -4.21834 -12.4066
ltibia 9.41467
lfoot -9.12679 3.77581
ltoes 6.94446
123
root 41.1649 17.8569 6.66387 101.448 -85.0383 -91.2305
lowerback -5.79297 -1.49487 3.35113
upperback -2.62891 -2.31369 3.41285
thorax 0.549144 -1.21125 1.48897
lowerneck -15.7532 -7.11056 -11.0459
upperneck 14.0056 -8.53438 7.80325
head 7.72213 -3.99162 3.36395
rclavicle -3.8266e-015 1.78906e-014
rhumerus -31.4029 -3.96323 -77.6939
rradius 25.8262
rwrist 6.81749
rhand -11.366 -21.2989
rfingers 7.12502
rthumb 14.6679 -50.7601
lclavicle -3.8266e-015 1.78906e-014
lhumerus -37.0509 13.7937 78.4133
lradius 30.656
lwrist -20.9236
lhand -10.9569 17.0483
lfingers 7.12502
lthumb 15.062 46.4804
rfemur -11.2904 3.57433 26.2439
rtibia 15.8875
rfoot -9.56308 -13.2049
rtoes 13.1805
lfemur -8.05398 -4.20455 -12.4164
ltibia 9.43234
lfoot -9.13584 3.75245
ltoes 6.92486
124
root 41.1631 17.8554 6.65752 101.448 -85.0681 -91.2106
lowerback -5.62911 -1.47178 3.32857
upperback -2.6571 -2.27067 3.41066
thorax 0.429639 -1.19074 1.50748
lowerneck -15.9252 -7.00823 -10.8983
upperneck 14.078 -8.39815 7.72231
head 7.75174 -3.92201 3.32754
rclavicle -9.93923e-016 3.29983e-014
rhumerus -31.4965 -3.86349 -77.7349
rradius 25.9443
rwrist 6.73304
rhand -11.3754 -21.2845
rfingers 7.12502
rthumb 14.6589 -50.7463
lclavicle -9.93923e-016 3.29983e-014
lhumerus -37.09 13.6222 78.4952
lradius 30.7648
lwrist -20.8231
lhand -10.9551 17.0703
lfingers 7.12502
lthumb 15.0637 46.5022
rfemur -11.3885 3.54561 26.236
rtibia 16.0421
rfoot -9.63237 -13.1965
rtoes 13.1757
lfemur -8.08243 -4.18966 -12.4298
ltibia 9.45427
lfoot -9.14767 3.74249
ltoes 6.86586
125
root 41.1615 17.8538 6.65128 101.558 -85.0961 -91.298
lowerback -5.4479 -1.4509 3.30681
upperback -2.70798 -2.22942 3.41457
thorax 0.277281 -1.17175 1.53255
lowerneck -16.0469 -6.89618 -10.7764
upperneck 14.1451 -8.25014 7.65007
head 7.77163 -3.8488 3.30096
rclavicle -2.3382e-014 3.22031e-014
rhumerus -31.6282 -3.72878 -77.7761
rradius 26.0696
rwrist 6.64305
rhand -11.3857 -21.2314
rfingers 7.12502
rthumb 14.649 -50.694
lclavicle -2.3382e-014 3.22031e-014
lhumerus -37.1819 13.45 78.5749
lradius 30.8888
lwrist -20.714
lhand -10.9569 17.1073
lfingers 7.12502
lthumb 15.062 46.5393
rfemur -11.4945 3.51449 26.2277
rtibia 16.2033
rfoot -9.70165 -13.177
rtoes 13.1641
lfemur -8.11353 -4.18386 -12.4434
ltibia 9.47871
lfoot -9.16466 3.74895
ltoes 6.83081
126
root 41.16 17.8521 6.64511 101.849 -85.1216 -91.5637
lowerback -5.3138 -1.4287 3.29717
upperback -2.73519 -2.19042 3.41421
thorax 0.174841 -1.15321 1.54427
lowerneck -16.1487 -6.78317 -10.6726
upperneck 14.1787 -8.10143 7.60327
head 7.77923 -3.77433 3.28637
rclavicle 7.50412e-015 -1.43125e-014
rhumerus -31.7281 -3.58732 -77.8346
rradius 26.1908
rwrist 6.55101
rhand -11.3971 -21.1348
rfingers 7.12502
rthumb 14.6379 -50.5981
lclavicle 7.50412e-015 -1.43125e-014
lhumerus -37.248 13.2859 78.6532
lradius 31.0152
lwrist -20.6006
lhand -10.9603 17.1456
lfingers 7.12502
lthumb 15.0587 46.5779
rfemur -11.6078 3.48204 26.219
rtibia 16.3703
rfoot -9.77143 -13.1424
rtoes 13.1591
lfemur -8.14562 -4.17403 -12.4584
ltibia 9.50391
lfoot -9.1819 3.77219
ltoes 6.75773
127
root 41.1585 17.8502 6.63886 102.259 -85.1466 -91.9458
lowerback -5.23244 -1.40417 3.29928
upperback -2.73335 -2.15255 3.40578
thorax 0.130906 -1.13444 1.53875
lowerneck -16.2493 -6.67429 -10.5838
upperneck 14.1827 -7.95841 7.58516
head 7.7795 -3.70068 3.28307
rclavicle 8.24956e-015 5.56597e-015
rhumerus -31.7876 -3.45897 -77.9097
rradius 26.3068
rwrist 6.46882
rhand -11.4007 -21.0153
rfingers 7.12502
rthumb 14.6345 -50.4789
lclavicle 8.24956e-015 5.56597e-015
lhumerus -37.2692 13.1267 78.7295
lradius 31.1342
lwrist -20.4887
lhand -10.9725 17.1765
lfingers 7.12502
lthumb 15.047 46.6096
rfemur -11.7279 3.44828 26.2093
rtibia 16.5385
rfoot -9.83887 -13.0967
rtoes 13.1513
lfemur -8.18157 -4.16998 -12.474
ltibia 9.52796
lfoot -9.20088 3.80795
ltoes 6.70758
128
root 41.1567 17.8482 6.63235 102.752 -85.1716 -92.4098
lowerback -5.20553 -1.38013 3.3064
upperback -2.70532 -2.1194 3.39304
thorax 0.143934 -1.11725 1.52358
lowerneck -16.3277 -6.56785 -10.5139
upperneck 14.1518 -7.81957 7.5938
head 7.7669 -3.62802 3.29164
rclavicle -1.35671e-014 1.23246e-014
rhumerus -31.813 -3.3311 -77.9982
rradius 26.4125
rwrist 6.39294
rhand -11.3896 -20.8535
rfingers 7.12502
rthumb 14.6452 -50.3163
lclavicle -1.35671e-014 1.23246e-014
lhumerus -37.2648 12.9621 78.8104
lradius 31.2615
lwrist -20.3619
lhand -10.9884 17.2106
lfingers 7.12502
lthumb 15.0316 46.645
rfemur -11.8458 3.41651 26.1991
rtibia 16.7007
rfoot -9.90288 -13.047
rtoes 13.1421
lfemur -8.21518 -4.1666 -12.4903
ltibia 9.55052
lfoot -9.22343 3.85048
ltoes 6.66171
129
root 41.1544 17.8462 6.62541 103.214 -85.1971 -92.8438
lowerback -5.1982 -1.35389 3.31474
upperback -2.66119 -2.0848 3.37634
thorax 0.184268 -1.09886 1.50283
lowerneck -16.4299 -6.47218 -10.4472
upperneck 14.1175 -7.69377 7.61198
head 7.75918 -3.56023 3.30167
rclavicle 6.70898e-016 -1.27222e-014
rhumerus -31.8178 -3.21538 -78.0911
rradius 26.5138
rwrist 6.31654
rhand -11.361 -20.6743
rfingers 7.12502
rthumb 14.6727 -50.1351
lclavicle 6.70898e-016 -1.27222e-014
lhumerus -37.233 12.7859 78.8982
lradius 31.3875
lwrist -20.2326
lhand -11.0068 17.2334
lfingers 7.12502
lthumb 15.014 46.6691
rfemur -11.9558 3.38428 26.1905
rtibia 16.8536
rfoot -9.96852 -13.0005
rtoes 13.1215
lfemur -8.2463 -4.16301 -12.505
ltibia 9.57206
lfoot -9.2454 3.89163
ltoes 6.61618
130
root 41.1515 17.8441 6.61788 103.603 -85.2234 -93.205
lowerback -5.20679 -1.33196 3.314
upperback -2.61373 -2.05676 3.36564
thorax 0.237497 -1.08355 1.49249
lowerneck -16.5195 -6.38135 -10.3932
upperneck 14.0757 -7.57345 7.63462
head 7.74806 -3.49561 3.31475
rclavicle 1.89839e-014 -1.94809e-014
rhumerus -31.8205 -3.08901 -78.1809
rradius 26.6104
rwrist 6.24025
rhand -11.3126 -20.4766
rfingers 7.12502
rthumb 14.7193 -49.934
lclavicle 1.89839e-014 -1.94809e-014
lhumerus -37.206 12.6151 78.9919
lradius 31.5164
lwrist -20.1046
lhand -11.0289 17.2495
lfingers 7.12502
lthumb 14.9926 46.6868
rfemur -12.0576 3.35367 26.1843
rtibia 16.9968
rfoot -10.0343 -12.9612
rtoes 13.1034
lfemur -8.2759 -4.16102 -12.5164
ltibia 9.59377
lfoot -9.26955 3.92697
ltoes 6.58305
